HIERARCHY
ROOT Hips
{
	OFFSET 0.000000 0.000000 0.000000
	CHANNELS 6 Xposition Yposition Zposition Xrotation Yrotation Zrotation
	JOINT LeftUpLeg_virtual
	{
		OFFSET 0.000000 0.000000 0.000000
		CHANNELS 3 Xrotation Yrotation Zrotation
		JOINT LeftUpLeg
		{
			OFFSET 11.394100 -6.187798 -0.413800
			CHANNELS 3 Xrotation Yrotation Zrotation
			JOINT LeftLeg
			{
				OFFSET 0.430247 -32.302673 3.732800
				CHANNELS 3 Xrotation Yrotation Zrotation
				JOINT LeftFoot
				{
					OFFSET -0.430247 -48.264931 -6.423300
					CHANNELS 3 Xrotation Yrotation Zrotation
					JOINT LeftToeBase
					{
						OFFSET 4.230900 -16.068199 23.438400
						CHANNELS 3 Xrotation Yrotation Zrotation
						JOINT LeftToe_End
						{
							OFFSET 4.510700 0.695400 19.974600
							CHANNELS 3 Xrotation Yrotation Zrotation
							End Site
							{
								OFFSET 0 0 0
							}
						}
					}
				}
			}
		}
	}
	JOINT RightUpLeg_virtual
	{
		OFFSET 0.000000 0.000000 0.000000
		CHANNELS 3 Xrotation Yrotation Zrotation
		JOINT RightUpLeg
		{
			OFFSET -11.333700 -6.187798 -0.413800
			CHANNELS 3 Xrotation Yrotation Zrotation
			JOINT RightLeg
			{
				OFFSET -0.430392 -32.302628 3.733000
				CHANNELS 3 Xrotation Yrotation Zrotation
				JOINT RightFoot
				{
					OFFSET 0.430392 -48.264973 -6.423500
					CHANNELS 3 Xrotation Yrotation Zrotation
					JOINT RightToeBase
					{
						OFFSET -4.230900 -16.068199 23.438400
						CHANNELS 3 Xrotation Yrotation Zrotation
						JOINT RightToe_End
						{
							OFFSET -4.510700 0.695400 19.974600
							CHANNELS 3 Xrotation Yrotation Zrotation
							End Site
							{
								OFFSET 0 0 0
							}
						}
					}
				}
			}
		}
	}
	JOINT Spine_virtual
	{
		OFFSET 0.000000 0.000000 0.000000
		CHANNELS 3 Xrotation Yrotation Zrotation
		JOINT Spine
		{
			OFFSET -0.002400 12.777504 0.315300
			CHANNELS 3 Xrotation Yrotation Zrotation
			JOINT Spine1
			{
				OFFSET -0.002067 5.816869 0.032633
				CHANNELS 3 Xrotation Yrotation Zrotation
				JOINT Spine1_split
				{
					OFFSET -0.002067 5.816869 0.032633
					CHANNELS 3 Xrotation Yrotation Zrotation
					JOINT Spine2
					{
						OFFSET -0.002067 5.816869 0.032633
						CHANNELS 3 Xrotation Yrotation Zrotation
						JOINT Neck_virtual
						{
							OFFSET 0.000000 0.000000 0.000000
							CHANNELS 3 Xrotation Yrotation Zrotation
							JOINT Neck
							{
								OFFSET -0.003700 21.199493 -0.826900
								CHANNELS 3 Xrotation Yrotation Zrotation
								JOINT Head
								{
									OFFSET 0.000000 20.442200 4.834800
									CHANNELS 3 Xrotation Yrotation Zrotation
									JOINT HeadTop_End
									{
										OFFSET 0.000000 34.668396 4.968400
										CHANNELS 3 Xrotation Yrotation Zrotation
										End Site
										{
											OFFSET 0 0 0
										}
									}
								}
							}
						}
						JOINT LeftShoulder_virtual
						{
							OFFSET 0.000000 0.000000 0.000000
							CHANNELS 3 Xrotation Yrotation Zrotation
							JOINT LeftShoulder
							{
								OFFSET 3.288150 8.794197 -1.372250
								CHANNELS 3 Xrotation Yrotation Zrotation
								JOINT LeftShoulder_split
								{
									OFFSET 3.288150 8.794197 -1.372250
									CHANNELS 3 Xrotation Yrotation Zrotation
									JOINT LeftArm
									{
										OFFSET 11.953299 -2.279007 -0.146200
										CHANNELS 3 Xrotation Yrotation Zrotation
										JOINT LeftForeArm
										{
											OFFSET 18.448900 0.000000 0.000000
											CHANNELS 3 Xrotation Yrotation Zrotation
											JOINT LeftHand
											{
												OFFSET 29.527798 0.000000 0.000000
												CHANNELS 3 Xrotation Yrotation Zrotation
												End Site
												{
													OFFSET 0 0 0
												}
											}
										}
									}
								}
							}
						}
						JOINT RightShoulder_virtual
						{
							OFFSET 0.000000 0.000000 0.000000
							CHANNELS 3 Xrotation Yrotation Zrotation
							JOINT RightShoulder
							{
								OFFSET -3.249400 8.794197 -1.372250
								CHANNELS 3 Xrotation Yrotation Zrotation
								JOINT RightShoulder_split
								{
									OFFSET -3.249400 8.794197 -1.372250
									CHANNELS 3 Xrotation Yrotation Zrotation
									JOINT RightArm
									{
										OFFSET -11.953299 -2.279007 -0.146200
										CHANNELS 3 Xrotation Yrotation Zrotation
										JOINT RightForeArm
										{
											OFFSET -18.448900 0.000000 0.000000
											CHANNELS 3 Xrotation Yrotation Zrotation
											JOINT RightHand
											{
												OFFSET -29.527802 0.000000 0.000000
												CHANNELS 3 Xrotation Yrotation Zrotation
												End Site
												{
													OFFSET 0 0 0
												}
											}
										}
									}
								}
							}
						}
					}
				}
			}
		}
	}
}
MOTION
Frames: 10
Frame Time: 0.03333333
13.774374 45.067062 -4.486141 0.000000 0.000000 0.000000 4.119438 -37.090243 10.194807 -95.911190 -20.545836 48.992482 65.203643 17.502295 -6.757763 53.596829 -4.128211 -1.846380 -2.874455 0.893741 -0.003099 0.000000 0.000000 0.000000 -0.158222 -31.933310 9.623005 1.184618 1.949992 -17.969864 104.593904 8.439084 -5.084775 20.767848 7.240498 16.628821 43.758963 -3.992215 -21.792145 0.000000 0.000000 0.000000 0.627545 -38.518165 9.011898 2.537329 -2.618910 -4.854909 2.159308 -4.064138 -2.160612 0.945080 0.982616 0.018649 0.000000 0.000000 0.000000 1.696420 -4.354886 -2.099053 0.196501 1.719518 2.254649 1.999012 15.139497 5.560271 0.000000 0.000000 0.000000 1.727340 -4.125003 -2.331958 1.574520 1.227817 -1.882415 -4.876757 1.229374 -1.098790 0.297563 -15.226727 -48.315696 178.079766 -86.790941 178.534916 0.000000 0.000000 0.000000 3.025962 -4.073094 -2.376467 5.429517 16.986996 3.311453 -1.465266 4.451904 -0.962407 -32.327282 -13.699421 46.186815 178.368245 83.017842 -178.817959 0.000000 0.000000 0.000000 
13.688502 45.081387 -4.479885 0.000000 0.000000 0.000000 4.264241 -37.053694 10.310206 -95.787256 -20.448598 49.116413 65.164998 17.658250 -6.972573 53.590757 -4.079877 -1.781722 -3.040811 0.895208 -0.029280 0.000000 0.000000 0.000000 -0.007794 -31.933088 9.731042 1.025178 2.003678 -17.907663 104.614210 8.412687 -5.113936 20.703838 7.180006 16.640832 43.923410 -3.930116 -21.491349 0.000000 0.000000 0.000000 0.801782 -38.432641 9.114083 2.483995 -2.546676 -5.078356 2.184778 -3.997342 -2.339584 0.942435 0.968790 0.028744 0.000000 0.000000 0.000000 1.695560 -4.304455 -2.245623 0.029846 1.588633 2.704413 1.879150 15.216936 5.872230 0.000000 0.000000 0.000000 1.724787 -4.046296 -2.490996 1.533780 1.447898 -1.134229 -5.015040 1.102914 -1.258564 0.380397 -15.302363 -48.636531 -179.790537 -86.763176 -179.271005 0.000000 0.000000 0.000000 3.010151 -4.011779 -2.568541 5.392287 17.133290 3.839287 -1.547179 4.504438 -0.890981 -31.226368 -12.524817 43.783295 179.104485 78.915528 -179.517425 0.000000 0.000000 0.000000 
13.597838 45.104424 -4.463875 0.000000 0.000000 0.000000 4.394513 -37.012098 10.390267 -95.692344 -20.339183 49.267247 65.169424 17.827089 -7.187920 53.566063 -4.090262 -1.704039 -3.165967 0.901213 -0.066594 0.000000 0.000000 0.000000 0.127770 -31.908144 9.797979 0.915978 2.019382 -17.806785 104.600345 8.383221 -5.141879 20.663084 7.120342 16.634924 44.091941 -3.873137 -21.214209 0.000000 0.000000 0.000000 0.953588 -38.294907 9.180253 2.413312 -2.455667 -5.293620 2.217105 -3.935443 -2.508803 0.939415 0.934378 0.042795 0.000000 0.000000 0.000000 1.711600 -4.249082 -2.383808 -0.166678 1.430588 3.180926 1.800114 15.255023 6.139934 0.000000 0.000000 0.000000 1.722295 -3.965354 -2.641882 1.476487 1.726624 -0.539556 -5.040370 0.953886 -1.353146 0.431257 -15.448377 -48.813361 -178.211301 -86.687607 -177.626009 0.000000 0.000000 0.000000 3.003078 -3.946821 -2.749075 5.338998 17.263759 4.481980 -1.631849 4.503673 -0.785590 -30.470003 -11.602487 41.682886 179.434834 75.185507 -179.793720 0.000000 0.000000 0.000000 
13.501004 45.136650 -4.450371 0.000000 0.000000 0.000000 4.498398 -36.962385 10.419834 -95.627156 -20.228548 49.425977 65.214441 17.998315 -7.386138 53.528852 -4.156248 -1.614728 -3.251923 0.909665 -0.104394 0.000000 0.000000 0.000000 0.235824 -31.850449 9.813633 0.859476 1.984100 -17.671407 104.568004 8.350616 -5.168201 20.658539 7.070818 16.633886 44.207563 -3.826587 -21.000351 0.000000 0.000000 0.000000 1.072110 -38.116800 9.202586 2.331465 -2.348386 -5.497672 2.263315 -3.873506 -2.664796 0.944069 0.892647 0.066702 0.000000 0.000000 0.000000 1.750674 -4.188895 -2.511815 -0.375429 1.262923 3.688699 1.800407 15.303893 6.317391 0.000000 0.000000 0.000000 1.740797 -3.883643 -2.778012 1.407193 2.028588 -0.055527 -4.959703 0.780430 -1.346026 0.469383 -15.659918 -48.882776 -177.039200 -86.573829 -176.387217 0.000000 0.000000 0.000000 3.026151 -3.878607 -2.913408 5.262651 17.412903 5.263030 -1.683732 4.418844 -0.683633 -29.743111 -10.689588 39.795732 179.643524 71.936987 -179.931567 0.000000 0.000000 0.000000 
13.398932 45.178238 -4.443634 0.000000 0.000000 0.000000 4.572263 -36.896163 10.398966 -95.584433 -20.125697 49.565197 65.271911 18.163186 -7.549809 53.483076 -4.269379 -1.512733 -3.348589 0.917229 -0.129717 0.000000 0.000000 0.000000 0.305256 -31.756862 9.775959 0.832754 1.890449 -17.515021 104.530533 8.323170 -5.197871 20.708927 7.049453 16.686915 44.222244 -3.796214 -20.871388 0.000000 0.000000 0.000000 1.154606 -37.910736 9.186594 2.244287 -2.231158 -5.689878 2.324787 -3.808538 -2.808247 0.931698 0.838921 0.072445 0.000000 0.000000 0.000000 1.810266 -4.128707 -2.636041 -0.590563 1.098663 4.215066 1.899862 15.405852 6.367320 0.000000 0.000000 0.000000 1.788847 -3.805975 -2.898513 1.331288 2.318312 0.365797 -4.799323 0.606034 -1.234288 0.473584 -15.915222 -48.912381 -176.068876 -86.415533 -175.343742 0.000000 0.000000 0.000000 3.089469 -3.815228 -3.062903 5.172608 17.579621 6.109996 -1.717546 4.241890 -0.584830 -28.771793 -9.574804 38.013667 179.802476 69.167256 179.987082 0.000000 0.000000 0.000000 
13.291707 45.225384 -4.454136 0.000000 0.000000 0.000000 4.614212 -36.789445 10.336988 -95.559647 -20.028387 49.656838 65.310781 18.318497 -7.667511 53.439544 -4.416708 -1.401205 -3.493658 0.922515 -0.139439 0.000000 0.000000 0.000000 0.341018 -31.627816 9.701398 0.830821 1.746081 -17.349961 104.482292 8.306663 -5.233508 20.807147 7.064026 16.816788 44.159611 -3.785707 -20.813548 0.000000 0.000000 0.000000 1.204657 -37.683318 9.147732 2.159244 -2.112992 -5.871092 2.392613 -3.742709 -2.943604 0.940005 0.797310 0.082920 0.000000 0.000000 0.000000 1.883599 -4.072067 -2.759030 -0.807046 0.965341 4.730683 2.095310 15.599908 6.274081 0.000000 0.000000 0.000000 1.857998 -3.735442 -3.008410 1.253080 2.581635 0.756150 -4.625567 0.476840 -1.084256 0.439597 -16.194573 -48.968529 -175.139642 -86.232928 -174.337710 0.000000 0.000000 0.000000 3.180554 -3.762449 -3.204525 5.077377 17.743380 6.953711 -1.749308 4.035612 -0.509764 -27.373752 -8.160578 36.282241 179.962562 66.778691 179.894629 0.000000 0.000000 0.000000 
13.178770 45.278046 -4.472252 0.000000 0.000000 0.000000 4.625250 -36.618963 10.244890 -95.559189 -19.929584 49.681440 65.309149 18.472750 -7.741836 53.422140 -4.574839 -1.278503 -3.651280 0.925583 -0.158910 0.000000 0.000000 0.000000 0.355100 -31.460432 9.609640 0.847033 1.564176 -17.176811 104.406511 8.297469 -5.269002 20.931929 7.104112 17.017249 44.075675 -3.793070 -20.780265 0.000000 0.000000 0.000000 1.229486 -37.426681 9.096728 2.081194 -2.001481 -6.045429 2.452042 -3.677665 -3.076064 0.933781 0.754226 0.079240 0.000000 0.000000 0.000000 1.968775 -4.019948 -2.881850 -1.026961 0.879685 5.198814 2.346034 15.887799 6.045662 0.000000 0.000000 0.000000 1.937435 -3.672679 -3.110760 1.177266 2.815205 1.126356 -4.490555 0.415485 -0.967257 0.381994 -16.487880 -49.100516 -174.270118 -86.041163 -173.396701 0.000000 0.000000 0.000000 3.267366 -3.725484 -3.341787 4.989524 17.881360 7.702055 -1.755058 3.869680 -0.476452 -25.528944 -6.527736 34.683308 -179.890544 64.602374 179.788556 0.000000 0.000000 0.000000 
13.056321 45.336754 -4.490253 0.000000 0.000000 0.000000 4.620938 -36.382854 10.144238 -95.597226 -19.821877 49.639766 65.251058 18.623962 -7.780742 53.442064 -4.724967 -1.150167 -3.788698 0.928871 -0.191526 0.000000 0.000000 0.000000 0.363721 -31.248532 9.519110 0.903951 1.365175 -16.991118 104.275993 8.295837 -5.297868 21.046360 7.154616 17.260047 44.039168 -3.811710 -20.720547 0.000000 0.000000 0.000000 1.244955 -37.131804 9.049929 2.008281 -1.899740 -6.214078 2.489268 -3.615134 -3.205914 0.932913 0.743539 0.060278 0.000000 0.000000 0.000000 2.049973 -3.969982 -3.001109 -1.255365 0.841684 5.584968 2.610233 16.236922 5.711810 0.000000 0.000000 0.000000 2.001908 -3.612846 -3.209083 1.107538 3.013127 1.466778 -4.394977 0.417300 -0.922323 0.357359 -16.814065 -49.303355 -173.500875 -85.880012 -172.569470 0.000000 0.000000 0.000000 3.323679 -3.699389 -3.473146 4.923567 17.967393 8.283351 -1.738575 3.753200 -0.450291 -23.336002 -4.813201 33.370552 -179.781466 62.554124 179.688248 0.000000 0.000000 0.000000 
12.924516 45.398422 -4.493126 0.000000 0.000000 0.000000 4.615555 -36.099852 10.050395 -95.674694 -19.693563 49.544461 65.130724 18.782604 -7.796942 53.491829 -4.842423 -1.004850 -3.894862 0.931404 -0.219985 0.000000 0.000000 0.000000 0.382069 -30.989313 9.441161 1.022446 1.165372 -16.786983 104.067802 8.297896 -5.317564 21.119761 7.204449 17.509501 44.097201 -3.833114 -20.598047 0.000000 0.000000 0.000000 1.264358 -36.796866 9.015332 1.938730 -1.801586 -6.375113 2.497200 -3.548374 -3.326609 0.955427 0.745285 0.052846 0.000000 0.000000 0.000000 2.113975 -3.911708 -3.105223 -1.482852 0.850378 5.856477 2.845817 16.599786 5.315848 0.000000 0.000000 0.000000 2.044038 -3.544030 -3.299708 1.048778 3.177303 1.760702 -4.317522 0.464386 -0.940031 0.437326 -17.205458 -49.535069 -172.850901 -85.827447 -171.888800 0.000000 0.000000 0.000000 3.330871 -3.665284 -3.592444 4.878372 18.012785 8.676989 -1.666621 3.705695 -0.399894 -20.967258 -3.179091 32.451530 -179.733819 60.644655 179.614946 0.000000 0.000000 0.000000 
12.781332 45.464020 -4.474491 0.000000 0.000000 0.000000 4.617306 -35.803298 9.970366 -95.791040 -19.544767 49.417703 64.973821 18.942717 -7.799216 53.565058 -4.917425 -0.845132 -3.947378 0.933636 -0.235842 0.000000 0.000000 0.000000 0.406663 -30.703797 9.376144 1.198771 0.962775 -16.568447 103.791213 8.304924 -5.325046 21.165178 7.254824 17.755008 44.231031 -3.848414 -20.405349 0.000000 0.000000 0.000000 1.288609 -36.433151 8.990622 1.869693 -1.693724 -6.526038 2.476036 -3.465486 -3.429747 0.982591 0.767185 0.047339 0.000000 0.000000 0.000000 2.153327 -3.831205 -3.187595 -1.692430 0.883157 5.995024 3.026051 16.913796 4.903709 0.000000 0.000000 0.000000 2.056190 -3.453244 -3.375580 1.005018 3.295293 1.986486 -4.249809 0.474686 -0.968110 0.675714 -17.684229 -49.715246 -172.314184 -85.932925 -171.353682 0.000000 0.000000 0.000000 3.289454 -3.603065 -3.688013 4.854241 18.035965 8.881289 -1.551844 3.664177 -0.329716 -18.642728 -1.696463 31.993091 -179.763776 58.955229 179.593841 0.000000 0.000000 0.000000 
